<svg width="128" height="128" viewBox="0 0 128 128" fill="none" xmlns="http://www.w3.org/2000/svg">
  <defs>
    <!-- Red to Purple gradient -->
    <linearGradient id="redPurpleGradient" x1="0%" y1="0%" x2="0%" y2="100%">
      <stop offset="0%" style="stop-color:#ff0000;stop-opacity:1" />
      <stop offset="50%" style="stop-color:#ff0066;stop-opacity:1" />
      <stop offset="100%" style="stop-color:#764ba2;stop-opacity:1" />
    </linearGradient>

    <!-- Subtle glow effect -->
    <filter id="softGlow">
      <feGaussianBlur stdDeviation="2.5" result="coloredBlur"/>
      <feMerge>
        <feMergeNode in="coloredBlur"/>
        <feMergeNode in="SourceGraphic"/>
      </feMerge>
    </filter>
  </defs>

  <!-- Dark circular background with gradient border -->
  <circle cx="64" cy="64" r="45" fill="#0f0f0f"/>
  <circle cx="64" cy="64" r="44" fill="none" stroke="url(#redPurpleGradient)" stroke-width="1" opacity="0.3"/>

  <!-- Play button arrow with smooth gradient transition -->
  <g transform="translate(68, 64)" filter="url(#softGlow)">
    <!-- Slice 1 - Pure Red -->
    <clipPath id="g1">
      <rect x="-40" y="-32" width="80" height="11"/>
    </clipPath>
    <path d="M -30 -32 L 34 0 L -30 32 Z" fill="#ff0000" clip-path="url(#g1)"/>

    <!-- Slice 2 - Red to Pink -->
    <clipPath id="g2">
      <rect x="-40" y="-19" width="80" height="11"/>
    </clipPath>
    <path d="M -30 -32 L 34 0 L -30 32 Z" fill="#ff0066" clip-path="url(#g2)"/>

    <!-- Slice 3 - Pink to Purple -->
    <clipPath id="g3">
      <rect x="-40" y="-6" width="80" height="11"/>
    </clipPath>
    <path d="M -30 -32 L 34 0 L -30 32 Z" fill="#cc3399" clip-path="url(#g3)"/>

    <!-- Slice 4 - Purple -->
    <clipPath id="g4">
      <rect x="-40" y="7" width="80" height="11"/>
    </clipPath>
    <path d="M -30 -32 L 34 0 L -30 32 Z" fill="#9966cc" clip-path="url(#g4)"/>

    <!-- Slice 5 - Deep Purple -->
    <clipPath id="g5">
      <rect x="-40" y="20" width="80" height="12"/>
    </clipPath>
    <path d="M -30 -32 L 34 0 L -30 32 Z" fill="#764ba2" clip-path="url(#g5)"/>
  </g>
</svg>